<svg preserveAspectRatio="none" width="100%" height="100%" overflow="visible" style="display: block;" viewBox="0 0 120 120" fill="none" xmlns="http://www.w3.org/2000/svg">
<g id="Group 48096464">
<circle id="Ellipse 197" cx="60" cy="60" r="60" fill="var(--fill-0, #FF9157)"/>
<g id="Smiley" clip-path="url(#clip0_15975_26436)">
<g id="Vector">
</g>
<path id="Vector_2" d="M60.25 35.625C55.4291 35.625 50.7164 37.0546 46.708 39.7329C42.6995 42.4113 39.5753 46.2181 37.7304 50.6721C35.8855 55.126 35.4028 60.027 36.3434 64.7553C37.2839 69.4836 39.6054 73.8268 43.0143 77.2357C46.4232 80.6446 50.7664 82.9661 55.4947 83.9066C60.223 84.8472 65.124 84.3644 69.5779 82.5196C74.0319 80.6747 77.8387 77.5505 80.5171 73.542C83.1954 69.5336 84.625 64.8209 84.625 60C84.6182 53.5374 82.0479 47.3415 77.4782 42.7718C72.9085 38.2021 66.7126 35.6318 60.25 35.625ZM51.8125 52.5C52.3688 52.5 52.9125 52.6649 53.375 52.974C53.8376 53.283 54.198 53.7223 54.4109 54.2362C54.6238 54.7501 54.6795 55.3156 54.571 55.8612C54.4624 56.4068 54.1946 56.9079 53.8012 57.3012C53.4079 57.6946 52.9068 57.9624 52.3612 58.071C51.8156 58.1795 51.2501 58.1238 50.7362 57.9109C50.2223 57.698 49.783 57.3376 49.474 56.875C49.1649 56.4125 49 55.8688 49 55.3125C49 54.5666 49.2963 53.8512 49.8238 53.3238C50.3512 52.7963 51.0666 52.5 51.8125 52.5ZM71.2469 66.5625C68.8352 70.732 64.8273 73.125 60.25 73.125C55.6727 73.125 51.6648 70.7344 49.2531 66.5625C49.1175 66.3491 49.0264 66.1104 48.9853 65.8609C48.9443 65.6114 48.9541 65.3561 49.0143 65.1105C49.0745 64.8649 49.1837 64.634 49.3354 64.4317C49.4871 64.2294 49.6782 64.0598 49.8971 63.9333C50.1161 63.8067 50.3583 63.7258 50.6094 63.6953C50.8604 63.6648 51.115 63.6854 51.3579 63.7559C51.6007 63.8263 51.8269 63.9452 52.0226 64.1053C52.2183 64.2654 52.3797 64.4634 52.4969 64.6875C54.2477 67.7133 56.9992 69.375 60.25 69.375C63.5008 69.375 66.2523 67.7109 68.0031 64.6875C68.1203 64.4634 68.2817 64.2654 68.4774 64.1053C68.6732 63.9452 68.8993 63.8263 69.1421 63.7559C69.385 63.6854 69.6396 63.6648 69.8906 63.6953C70.1417 63.7258 70.3839 63.8067 70.6029 63.9333C70.8218 64.0598 71.0129 64.2294 71.1646 64.4317C71.3163 64.634 71.4255 64.8649 71.4857 65.1105C71.5459 65.3561 71.5557 65.6114 71.5147 65.8609C71.4736 66.1104 71.3825 66.3491 71.2469 66.5625ZM68.6875 58.125C68.1312 58.125 67.5875 57.9601 67.125 57.651C66.6624 57.342 66.302 56.9027 66.0891 56.3888C65.8762 55.8749 65.8205 55.3094 65.929 54.7638C66.0376 54.2182 66.3054 53.7171 66.6988 53.3238C67.0921 52.9304 67.5932 52.6626 68.1388 52.554C68.6844 52.4455 69.2499 52.5012 69.7638 52.7141C70.2777 52.927 70.717 53.2874 71.026 53.75C71.335 54.2125 71.5 54.7562 71.5 55.3125C71.5 56.0584 71.2037 56.7738 70.6762 57.3012C70.1488 57.8287 69.4334 58.125 68.6875 58.125Z" fill="var(--fill-0, white)"/>
</g>
</g>
<defs>
<clipPath id="clip0_15975_26436">
<rect width="60" height="60" fill="white" transform="translate(30.25 30)"/>
</clipPath>
</defs>
</svg>
