<svg preserveAspectRatio="none" width="100%" height="100%" overflow="visible" style="display: block;" viewBox="0 0 120 120" fill="none" xmlns="http://www.w3.org/2000/svg">
<g id="Group 48096464">
<circle id="Ellipse 197" cx="60" cy="60" r="60" fill="var(--fill-0, #FF9157)"/>
<g id="Building" clip-path="url(#clip0_15975_26456)">
<g id="Vector">
</g>
<path id="Vector_2" d="M84.125 82.5H78.5V37.5H80.375C80.8723 37.5 81.3492 37.3025 81.7008 36.9508C82.0525 36.5992 82.25 36.1223 82.25 35.625C82.25 35.1277 82.0525 34.6508 81.7008 34.2992C81.3492 33.9475 80.8723 33.75 80.375 33.75H39.125C38.6277 33.75 38.1508 33.9475 37.7992 34.2992C37.4475 34.6508 37.25 35.1277 37.25 35.625C37.25 36.1223 37.4475 36.5992 37.7992 36.9508C38.1508 37.3025 38.6277 37.5 39.125 37.5H41V82.5H35.375C34.8777 82.5 34.4008 82.6975 34.0492 83.0492C33.6975 83.4008 33.5 83.8777 33.5 84.375C33.5 84.8723 33.6975 85.3492 34.0492 85.7008C34.4008 86.0525 34.8777 86.25 35.375 86.25H84.125C84.6223 86.25 85.0992 86.0525 85.4508 85.7008C85.8025 85.3492 86 84.8723 86 84.375C86 83.8777 85.8025 83.4008 85.4508 83.0492C85.0992 82.6975 84.6223 82.5 84.125 82.5ZM50.375 43.125H56C56.4973 43.125 56.9742 43.3225 57.3258 43.6742C57.6775 44.0258 57.875 44.5027 57.875 45C57.875 45.4973 57.6775 45.9742 57.3258 46.3258C56.9742 46.6775 56.4973 46.875 56 46.875H50.375C49.8777 46.875 49.4008 46.6775 49.0492 46.3258C48.6975 45.9742 48.5 45.4973 48.5 45C48.5 44.5027 48.6975 44.0258 49.0492 43.6742C49.4008 43.3225 49.8777 43.125 50.375 43.125ZM50.375 52.5H56C56.4973 52.5 56.9742 52.6975 57.3258 53.0492C57.6775 53.4008 57.875 53.8777 57.875 54.375C57.875 54.8723 57.6775 55.3492 57.3258 55.7008C56.9742 56.0525 56.4973 56.25 56 56.25H50.375C49.8777 56.25 49.4008 56.0525 49.0492 55.7008C48.6975 55.3492 48.5 54.8723 48.5 54.375C48.5 53.8777 48.6975 53.4008 49.0492 53.0492C49.4008 52.6975 49.8777 52.5 50.375 52.5ZM48.5 63.75C48.5 63.2527 48.6975 62.7758 49.0492 62.4242C49.4008 62.0725 49.8777 61.875 50.375 61.875H56C56.4973 61.875 56.9742 62.0725 57.3258 62.4242C57.6775 62.7758 57.875 63.2527 57.875 63.75C57.875 64.2473 57.6775 64.7242 57.3258 65.0758C56.9742 65.4275 56.4973 65.625 56 65.625H50.375C49.8777 65.625 49.4008 65.4275 49.0492 65.0758C48.6975 64.7242 48.5 64.2473 48.5 63.75ZM65.375 82.5H54.125V73.125H65.375V82.5ZM69.125 65.625H63.5C63.0027 65.625 62.5258 65.4275 62.1742 65.0758C61.8225 64.7242 61.625 64.2473 61.625 63.75C61.625 63.2527 61.8225 62.7758 62.1742 62.4242C62.5258 62.0725 63.0027 61.875 63.5 61.875H69.125C69.6223 61.875 70.0992 62.0725 70.4508 62.4242C70.8025 62.7758 71 63.2527 71 63.75C71 64.2473 70.8025 64.7242 70.4508 65.0758C70.0992 65.4275 69.6223 65.625 69.125 65.625ZM69.125 56.25H63.5C63.0027 56.25 62.5258 56.0525 62.1742 55.7008C61.8225 55.3492 61.625 54.8723 61.625 54.375C61.625 53.8777 61.8225 53.4008 62.1742 53.0492C62.5258 52.6975 63.0027 52.5 63.5 52.5H69.125C69.6223 52.5 70.0992 52.6975 70.4508 53.0492C70.8025 53.4008 71 53.8777 71 54.375C71 54.8723 70.8025 55.3492 70.4508 55.7008C70.0992 56.0525 69.6223 56.25 69.125 56.25ZM69.125 46.875H63.5C63.0027 46.875 62.5258 46.6775 62.1742 46.3258C61.8225 45.9742 61.625 45.4973 61.625 45C61.625 44.5027 61.8225 44.0258 62.1742 43.6742C62.5258 43.3225 63.0027 43.125 63.5 43.125H69.125C69.6223 43.125 70.0992 43.3225 70.4508 43.6742C70.8025 44.0258 71 44.5027 71 45C71 45.4973 70.8025 45.9742 70.4508 46.3258C70.0992 46.6775 69.6223 46.875 69.125 46.875Z" fill="var(--fill-0, white)"/>
</g>
</g>
<defs>
<clipPath id="clip0_15975_26456">
<rect width="60" height="60" fill="white" transform="translate(29.75 30)"/>
</clipPath>
</defs>
</svg>
