<svg preserveAspectRatio="none" width="100%" height="100%" overflow="visible" style="display: block;" viewBox="0 0 120 120" fill="none" xmlns="http://www.w3.org/2000/svg">
<g id="Group 48096464">
<circle id="Ellipse 197" cx="60" cy="60" r="60" fill="var(--fill-0, #FF9157)"/>
<g id="TrendUp" clip-path="url(#clip0_15975_26442)">
<g id="Vector">
</g>
<path id="Vector_2" d="M86 43.125V58.125C86.0003 58.4961 85.8905 58.8589 85.6845 59.1675C85.4785 59.4761 85.1855 59.7166 84.8427 59.8587C84.4999 60.0007 84.1227 60.0378 83.7588 59.9654C83.3949 59.8929 83.0607 59.7141 82.7984 59.4516L76.625 53.2758L62.9516 66.9516C62.7774 67.1259 62.5706 67.2642 62.343 67.3586C62.1154 67.4529 61.8714 67.5015 61.625 67.5015C61.3786 67.5015 61.1346 67.4529 60.907 67.3586C60.6794 67.2642 60.4726 67.1259 60.2984 66.9516L52.25 58.9008L36.7016 74.4516C36.3497 74.8034 35.8726 75.001 35.375 75.001C34.8774 75.001 34.4003 74.8034 34.0484 74.4516C33.6966 74.0997 33.499 73.6226 33.499 73.125C33.499 72.6274 33.6966 72.1503 34.0484 71.7984L50.9234 54.9234C51.0976 54.7491 51.3044 54.6108 51.532 54.5165C51.7596 54.4221 52.0036 54.3735 52.25 54.3735C52.4964 54.3735 52.7404 54.4221 52.968 54.5165C53.1956 54.6108 53.4024 54.7491 53.5766 54.9234L61.625 62.9742L73.9742 50.625L67.7984 44.4516C67.5359 44.1893 67.3571 43.8551 67.2846 43.4912C67.2122 43.1273 67.2493 42.7501 67.3913 42.4073C67.5334 42.0645 67.7739 41.7715 68.0825 41.5655C68.3911 41.3595 68.7539 41.2497 69.125 41.25H84.125C84.6223 41.25 85.0992 41.4475 85.4508 41.7992C85.8025 42.1508 86 42.6277 86 43.125Z" fill="var(--fill-0, white)"/>
</g>
</g>
<defs>
<clipPath id="clip0_15975_26442">
<rect width="60" height="60" fill="white" transform="translate(29.75 30)"/>
</clipPath>
</defs>
</svg>
