<svg preserveAspectRatio="none" width="100%" height="100%" overflow="visible" style="display: block;" viewBox="0 0 120 120" fill="none" xmlns="http://www.w3.org/2000/svg">
<g id="Group 48096464">
<circle id="Ellipse 197" cx="60" cy="60" r="60" fill="var(--fill-0, #FF9157)"/>
<g id="Handshake" clip-path="url(#clip0_15975_26448)">
<g id="Vector">
</g>
<path id="Vector_2" d="M89.8516 55.2914L83.8703 43.3242C83.65 42.8837 83.345 42.491 82.9729 42.1684C82.6007 41.8458 82.1687 41.5997 81.7014 41.444C81.2341 41.2884 80.7408 41.2264 80.2495 41.2615C79.7583 41.2965 79.2787 41.428 78.8383 41.6484L73.0094 44.5617L60.7305 41.3133C60.4154 41.2313 60.0846 41.2313 59.7695 41.3133L47.4906 44.5617L41.6617 41.6484C41.2213 41.428 40.7417 41.2965 40.2505 41.2615C39.7592 41.2264 39.2659 41.2884 38.7986 41.444C38.3313 41.5997 37.8993 41.8458 37.5271 42.1684C37.155 42.491 36.85 42.8837 36.6297 43.3242L30.6484 55.2891C30.428 55.7295 30.2965 56.209 30.2615 56.7003C30.2264 57.1916 30.2884 57.6849 30.444 58.1522C30.5997 58.6195 30.8458 59.0515 31.1684 59.4237C31.491 59.7958 31.8837 60.1007 32.3242 60.3211L38.6523 63.4875L51.6578 72.7758C51.8494 72.9121 52.0649 73.0115 52.293 73.0687L67.293 76.8187C67.6071 76.8975 67.9363 76.8936 68.2484 76.8073C68.5606 76.7211 68.8451 76.5555 69.0742 76.3266L78.4492 66.9516L81.9836 63.4172L88.1758 60.3211C89.0647 59.8761 89.7406 59.0963 90.0549 58.1531C90.3691 57.21 90.296 56.1807 89.8516 55.2914ZM76.9867 63.1125L68.9219 56.6531C68.5606 56.3638 68.105 56.2183 67.6429 56.2447C67.1808 56.2711 66.7448 56.4675 66.4188 56.7961C62.2445 61.0008 57.5922 60.4687 54.625 58.5937L64.7594 48.75H72.2148L78.5922 61.5023L76.9867 63.1125ZM67.1734 72.9234L53.5516 69.518L42.0203 61.282L48.5828 48.157L60.25 45.0656L62.5469 45.6727L52 55.9102L51.9813 55.9312C51.5842 56.3283 51.2814 56.8094 51.0952 57.339C50.909 57.8687 50.844 58.4335 50.9052 58.9916C50.9664 59.5497 51.1522 60.087 51.4487 60.5637C51.7453 61.0405 52.1451 61.4445 52.6188 61.7461C57.4375 64.8234 63.2523 64.3242 67.832 60.5742L74.3125 65.7797L67.1734 72.9234ZM61.1453 81.0797C61.044 81.4849 60.8103 81.8448 60.4812 82.1021C60.1522 82.3594 59.7466 82.4994 59.3289 82.5C59.1748 82.4998 59.0214 82.4809 58.8719 82.4437L49.0961 79.9992C48.8677 79.9429 48.6521 79.8434 48.4609 79.7063L42.2852 75.2953C41.9054 74.9972 41.6553 74.564 41.587 74.0861C41.5186 73.6082 41.6372 73.1223 41.9181 72.7296C42.199 72.337 42.6205 72.0678 43.0949 71.9782C43.5693 71.8885 44.06 71.9853 44.4648 72.2484L50.35 76.4531L59.7813 78.8063C60.2636 78.9269 60.6782 79.2342 60.934 79.6605C61.1898 80.0869 61.2658 80.5973 61.1453 81.0797Z" fill="var(--fill-0, white)"/>
</g>
</g>
<defs>
<clipPath id="clip0_15975_26448">
<rect width="60" height="60" fill="white" transform="translate(30.25 30)"/>
</clipPath>
</defs>
</svg>
