<svg preserveAspectRatio="none" width="100%" height="100%" overflow="visible" style="display: block;" viewBox="0 0 704 445" fill="none" xmlns="http://www.w3.org/2000/svg">
<g id="Frame 1261169147">
<g clip-path="url(#clip0_15096_16927)">
<rect width="704" height="445" rx="28" fill="var(--fill-0, #0065E0)"/>
<path id="Vector 44" d="M-0.857136 446.712V239.615C102.461 298.427 165.62 402.184 184.284 446.712H-0.857136Z" fill="url(#paint0_linear_15096_16927)"/>
<path id="Vector 43" d="M-0.857136 446.712V249.029C97.1992 305.167 157.142 404.208 174.856 446.712H-0.857136Z" fill="url(#paint1_linear_15096_16927)"/>
<path id="Vector 46" d="M525.424 450.99H83.1422C71.4851 397.59 173.713 213.657 226.284 128.365L337.712 58.1923L405.425 54.7692L450.853 71.8846L525.424 450.99Z" fill="url(#paint2_linear_15096_16927)"/>
<path id="Vector 48" d="M429.425 81.2975C345.083 186.728 381.14 373.4 409.711 453.557H608.566C611.138 160.885 513.424 95.8456 485.139 77.8744C462.511 63.4975 438.568 74.1661 429.425 81.2975Z" fill="url(#paint3_linear_15096_16927)"/>
<path id="Vector 50" d="M720.851 462.119H571.71C494.567 402.214 431.996 270.423 510.853 219.081C572.313 179.066 675.137 197.116 720.851 213.946V462.119Z" fill="url(#paint4_linear_15096_16927)"/>
<path id="Vector 49" d="M481.71 252.452C446.739 340.767 509.424 427.885 545.138 460.404H593.138C501.253 408.373 480.568 300.09 481.71 252.452Z" fill="url(#paint5_linear_15096_16927)"/>
<path id="Vector 47" d="M382.283 452.702C369.997 415.619 348.34 313.04 359.997 199.394C364.854 163.452 383.997 89.1712 421.711 79.5865L453.333 71.1268C453.456 71.0929 453.578 71.0603 453.7 71.0288L453.333 71.1268C433.4 76.623 393.404 114.137 389.997 221.644C389.905 269.282 396.12 382.187 421.711 452.702H382.283Z" fill="url(#paint6_linear_15096_16927)"/>
<path id="Vector 45" d="M234.855 106.116C119.656 216.339 66.2852 381.388 53.9996 450.135H94.2849C138.856 278.982 223.712 158.603 260.569 119.808C346.969 36.2846 423.997 55.3397 451.711 75.3077L454.282 72.7404L449.996 70.1737C353.997 19.5122 266.569 73.0263 234.855 106.116Z" fill="url(#paint7_linear_15096_16927)"/>
</g>
</g>
<defs>
<linearGradient id="paint0_linear_15096_16927" x1="-1.71427" y1="216.51" x2="98.4133" y2="315.083" gradientUnits="userSpaceOnUse">
<stop stop-color="#0499EB"/>
<stop offset="1" stop-color="#99DBFF"/>
</linearGradient>
<linearGradient id="paint1_linear_15096_16927" x1="86.9993" y1="249.029" x2="86.9993" y2="446.712" gradientUnits="userSpaceOnUse">
<stop stop-color="#2E66D1"/>
<stop offset="1" stop-color="#63A6FA"/>
</linearGradient>
<linearGradient id="paint2_linear_15096_16927" x1="303.824" y1="54.7692" x2="303.824" y2="450.99" gradientUnits="userSpaceOnUse">
<stop stop-color="#118CE8"/>
<stop offset="1" stop-color="#69BFF5"/>
</linearGradient>
<linearGradient id="paint3_linear_15096_16927" x1="492.813" y1="70.7514" x2="492.813" y2="453.557" gradientUnits="userSpaceOnUse">
<stop stop-color="#1E0D99"/>
<stop offset="1" stop-color="#1916A1"/>
</linearGradient>
<linearGradient id="paint4_linear_15096_16927" x1="597.639" y1="194.932" x2="597.639" y2="462.119" gradientUnits="userSpaceOnUse">
<stop stop-color="#001A3F"/>
<stop offset="1" stop-color="#012D70"/>
</linearGradient>
<linearGradient id="paint5_linear_15096_16927" x1="485.996" y1="304.654" x2="532.154" y2="460.444" gradientUnits="userSpaceOnUse">
<stop stop-color="#012257"/>
<stop offset="1" stop-color="#0040A0"/>
</linearGradient>
<linearGradient id="paint6_linear_15096_16927" x1="405.179" y1="71.0288" x2="405.179" y2="452.702" gradientUnits="userSpaceOnUse">
<stop stop-color="#759EF2"/>
<stop offset="1" stop-color="#16269C"/>
</linearGradient>
<linearGradient id="paint7_linear_15096_16927" x1="254.141" y1="49.3371" x2="80.1814" y2="450.338" gradientUnits="userSpaceOnUse">
<stop stop-color="#9AD3FF"/>
<stop offset="1" stop-color="#81C4F6"/>
</linearGradient>
<clipPath id="clip0_15096_16927">
<rect width="704" height="445" rx="28" fill="white"/>
</clipPath>
</defs>
</svg>
