<svg preserveAspectRatio="none" width="100%" height="100%" overflow="visible" style="display: block;" viewBox="0 0 92 54" fill="none" xmlns="http://www.w3.org/2000/svg">
<g id="Group">
<path id="Vector" d="M45.2311 25.3311C38.3595 25.3907 26.3344 25.7581 24.8349 25.8375C24.5668 25.8474 24.3384 25.6786 24.3384 25.6786C27.4167 33.0963 35.5891 38.4088 45.2311 38.4088C54.8731 38.4088 63.0454 33.1062 66.1237 25.6786C66.1237 25.6786 65.8953 25.8474 65.6272 25.8375C64.1278 25.7581 52.1026 25.3807 45.2311 25.3311Z" fill="var(--fill-0, white)"/>
<path id="Vector_2" d="M45.2311 13.0778C52.1026 13.0182 64.1278 12.6508 65.6272 12.5713C65.8953 12.5614 66.1237 12.7302 66.1237 12.7302C63.0454 5.31253 54.8731 1.05904e-08 45.2311 1.05904e-08C35.5891 1.05904e-08 27.4167 5.31253 24.3384 12.7302C24.3384 12.7302 24.5668 12.5614 24.8349 12.5713C26.3344 12.6508 38.3595 13.0281 45.2311 13.0778Z" fill="var(--fill-0, white)"/>
<path id="Vector_3" d="M24.7357 15.4307C35.1324 15.9868 39.7299 16.096 45.2311 16.096C50.7323 16.096 55.3299 15.9967 65.7266 15.4307C65.8259 15.4307 66.8486 15.3115 67.0472 15.669C66.9777 15.2917 66.7394 14.4377 66.6103 14.0405C66.5706 14.2689 66.3919 14.388 66.1635 14.398C64.9322 14.4774 45.2311 13.6731 45.2311 13.6731C45.2311 13.6731 25.54 14.4774 24.2988 14.398C24.0704 14.388 23.8917 14.259 23.8519 14.0405C23.7228 14.4377 23.4845 15.3016 23.415 15.669C23.6136 15.3115 24.6364 15.4307 24.7357 15.4307Z" fill="var(--fill-0, white)"/>
<path id="Vector_4" d="M65.7266 22.9786C55.3299 22.4126 50.7323 22.3133 45.2311 22.3133C39.7299 22.3133 35.1324 22.4126 24.7357 22.9786C24.6364 22.9786 23.6136 23.0978 23.415 22.7403C23.4845 23.1176 23.7228 23.9716 23.8519 24.3688C23.8917 24.1404 24.0704 24.0213 24.2988 24.0113C25.5301 23.9319 45.2311 24.7362 45.2311 24.7362C45.2311 24.7362 64.9222 23.9319 66.1635 24.0113C66.3919 24.0312 66.5706 24.1504 66.6103 24.3688C66.7394 23.9716 66.9777 23.1176 67.0472 22.7403C66.8486 23.0978 65.8259 22.9786 65.7266 22.9786Z" fill="var(--fill-0, white)"/>
<path id="Vector_5" d="M23.7823 18.2719C32.7888 18.6393 37.6148 18.9074 45.231 18.9074C52.8473 18.9074 57.6733 18.6393 66.6797 18.2719C67.0174 18.262 67.3153 18.262 67.4146 18.5102C67.3947 18.2024 67.355 17.4874 67.2855 17.0207C67.206 17.2094 67.0968 17.3186 66.789 17.3385C66.4414 17.3583 51.189 16.6831 45.241 16.6831C39.2929 16.6831 24.0405 17.3583 23.693 17.3385C23.3851 17.3285 23.2759 17.2094 23.1965 17.0207C23.127 17.4874 23.0773 18.2024 23.0674 18.5102C23.1667 18.262 23.4646 18.262 23.8022 18.2719" fill="var(--fill-0, white)"/>
<path id="Vector_6" d="M45.2312 21.7274C51.1892 21.7274 66.4317 21.0521 66.7792 21.072C67.0871 21.0918 67.1963 21.2011 67.2757 21.3897C67.3453 20.923 67.385 20.2081 67.4048 19.9003C67.3055 20.1485 67.0076 20.1485 66.67 20.1386C57.6636 19.7712 52.8376 19.5031 45.2213 19.5031C37.605 19.5031 32.7791 19.7712 23.7726 20.1386C23.4449 20.1584 23.1371 20.1485 23.0378 19.9003C23.0577 20.2081 23.0974 20.923 23.1669 21.3897C23.2463 21.2011 23.3556 21.0918 23.6634 21.072C24.0109 21.0521 39.2634 21.7274 45.2213 21.7274" fill="var(--fill-0, white)"/>
<path id="Vector_7" d="M11.231 45.1522C9.09609 45.1522 7.35835 46.9495 7.35835 49.1738C7.35835 51.3981 9.09609 53.2054 11.231 53.2054C13.366 53.2054 15.1037 51.3981 15.1037 49.1738C15.1037 46.9495 13.366 45.1522 11.231 45.1522ZM11.241 52.0734C10.3175 52.0734 8.86771 51.3882 8.86771 49.1838C8.86771 46.9793 10.3175 46.2644 11.241 46.2644C12.1645 46.2644 13.6142 46.9694 13.6142 49.1838C13.6142 51.3981 12.1645 52.0734 11.241 52.0734Z" fill="var(--fill-0, white)"/>
<path id="Vector_8" d="M70.781 45.1522C68.646 45.1522 66.9083 46.9495 66.9083 49.1738C66.9083 51.3981 68.646 53.2054 70.781 53.2054C72.9159 53.2054 74.6536 51.3981 74.6536 49.1738C74.6536 46.9495 72.9159 45.1522 70.781 45.1522ZM70.7909 52.0734C69.8674 52.0734 68.4176 51.3882 68.4176 49.1838C68.4176 46.9793 69.8674 46.2644 70.7909 46.2644C71.7144 46.2644 73.1641 46.9694 73.1641 49.1838C73.1641 51.3981 71.7144 52.0734 70.7909 52.0734Z" fill="var(--fill-0, white)"/>
<path id="Vector_9" d="M1.40023 45.3306H0.000100635V53.0164H1.40023V45.3306Z" fill="var(--fill-0, white)"/>
<path id="Vector_10" d="M26.3842 45.3306H24.984V53.0164H26.3842V45.3306Z" fill="var(--fill-0, white)"/>
<path id="Vector_11" d="M57.0477 45.3306H55.6476V53.0164H57.0477V45.3306Z" fill="var(--fill-0, white)"/>
<path id="Vector_12" d="M32.7691 46.3636H33.3848L33.4543 45.3706C33.1465 45.3408 32.9181 45.3209 32.6102 45.3209C29.6412 45.3209 27.7247 46.9097 27.7247 49.1837C27.7247 51.4577 29.6412 53.0365 32.6102 53.0365C32.9181 53.0365 33.1465 53.0167 33.4543 52.9869L33.3848 51.9939H32.7691C30.654 51.9939 29.2638 50.9016 29.2638 49.1738C29.2638 47.446 30.664 46.3735 32.7691 46.3735" fill="var(--fill-0, white)"/>
<path id="Vector_13" d="M21.8164 49.9185C21.8164 49.9185 21.8164 49.9384 21.8065 49.9185C20.7837 48.0318 18.5991 46.0657 17.2685 45.3209H16.3152V53.0067H17.6259C17.6259 53.0067 17.5763 47.0785 17.5763 47.0686C17.5763 47.0488 17.5763 47.0388 17.5962 47.0488C19.2545 48.1907 21.0518 50.3952 21.9951 53.0067H23.0775V45.3209H21.7568C21.7568 45.3209 21.8065 49.8987 21.8065 49.9086" fill="var(--fill-0, white)"/>
<path id="Vector_14" d="M64.4059 49.9185C64.4059 49.9185 64.4059 49.9384 64.3959 49.9185C63.3732 48.0318 61.1985 46.0657 59.8679 45.3209H58.9146V53.0067H60.2254C60.2254 53.0067 60.1757 47.0785 60.1757 47.0686C60.1757 47.0488 60.1757 47.0388 60.1956 47.0488C61.8539 48.1907 63.6512 50.3952 64.6045 53.0067H65.6868V45.3209H64.3662C64.3662 45.3209 64.4158 49.8987 64.4158 49.9086" fill="var(--fill-0, white)"/>
<path id="Vector_15" d="M33.8812 53.016H35.2019C35.2019 53.016 37.2673 48.1106 37.3468 47.9518C37.4461 48.1206 39.8988 53.016 39.8988 53.016H41.4776L37.3666 45.1813L33.8713 53.016H33.8812Z" fill="var(--fill-0, white)"/>
<path id="Vector_16" d="M87.5626 45.1813L84.0673 53.026H85.388C85.388 53.026 87.4534 48.1206 87.5328 47.9617C87.6321 48.1305 90.0848 53.026 90.0848 53.026H91.6637L87.5527 45.1813H87.5626Z" fill="var(--fill-0, white)"/>
<path id="Vector_17" d="M3.89267 48.4586C4.70693 47.6145 6.90145 45.3306 6.90145 45.3306H5.22328L2.02585 48.6969C3.55506 49.7097 4.84595 51.0801 5.63041 53.0164H7.10006C6.49433 51.1992 5.33252 49.5409 3.89267 48.4586Z" fill="var(--fill-0, white)"/>
<path id="Vector_18" d="M77.2652 45.3306H75.8651V53.0164H80.3137V51.9539H77.2652V45.3306Z" fill="var(--fill-0, white)"/>
<path id="Vector_19" d="M84.9511 45.3306H79.6584V46.4031H81.6047V53.0164H83.0048V46.4031H84.9511V45.3306Z" fill="var(--fill-0, white)"/>
<path id="Vector_20" d="M49.9777 49.1048C49.8386 49.3729 49.64 49.8793 49.511 50.2368H49.4911C49.362 49.8793 49.1634 49.3729 49.0244 49.1048C48.3591 47.7146 47.2966 45.7981 46.671 45.1328C46.3036 45.808 44.8339 51.7164 44.5261 53.0073H45.9262C45.9262 53.0073 47.0285 47.9728 47.0384 47.9529C47.0384 47.9331 47.0483 47.9331 47.0583 47.9529C47.5349 48.6877 48.4782 50.5943 49.0343 52.332H49.9578C50.4742 50.7134 51.4473 48.6778 51.9239 47.943H51.9438C51.9438 47.9529 53.0659 53.0073 53.0659 53.0073H54.466C54.1582 51.7263 52.6985 45.818 52.3211 45.1328C51.6757 45.7981 50.643 47.7146 49.9677 49.0949" fill="var(--fill-0, white)"/>
</g>
</svg>
