<svg preserveAspectRatio="none" width="100%" height="100%" overflow="visible" style="display: block;" viewBox="0 0 56 18" fill="none" xmlns="http://www.w3.org/2000/svg">
<g id="LOGO" clip-path="url(#clip0_15096_16917)">
<path id="Union" d="M49.6708 5.35706L54.0976 2.85999L56.1445 6.32288L51.7197 8.81897L56.1435 11.3151L54.0966 14.778L49.6708 12.2809V17.275H45.5781V12.2838L41.1562 14.7789L39.1103 11.3151L43.5341 8.81897L39.1083 6.32288L41.1552 2.85901L45.5781 5.35413V0.363895H49.6708V5.35706Z" fill="var(--fill-0, #232323)"/>
<path id="Union_2" d="M10.7892 0.363725V6.54634H17.3019V10.5463H10.7892V17.2749H6.51091V10.5463H0.00016656V6.54634H6.51091V0.363725H10.7892Z" fill="var(--fill-0, #232323)"/>
<path id="Vector" fill-rule="evenodd" clip-rule="evenodd" d="M28.1249 17.8202C33.1594 17.8202 37.2409 13.831 37.2409 8.91011C37.2409 3.9892 33.1594 1.81999e-05 28.1249 1.81999e-05C23.0901 1.81999e-05 19.0087 3.9892 19.0087 8.91011C19.0087 13.831 23.0901 17.8202 28.1249 17.8202ZM28.1253 13.9322C30.9628 13.9322 33.2634 11.6837 33.2634 8.91013C33.2634 6.13651 30.9628 3.88807 28.1253 3.88807C25.2875 3.88807 22.987 6.13651 22.987 8.91013C22.987 11.6837 25.2875 13.9322 28.1253 13.9322Z" fill="var(--fill-0, #232323)"/>
</g>
<defs>
<clipPath id="clip0_15096_16917">
<rect width="56" height="18" fill="white"/>
</clipPath>
</defs>
</svg>
