<svg width="61" height="61" viewBox="0 0 61 61" fill="none" xmlns="http://www.w3.org/2000/svg">
<g clip-path="url(#clip0_14499_8947)">
<path d="M51.0906 9.51562H9.84058C8.84601 9.51563 7.89219 9.91071 7.18893 10.614C6.48566 11.3172 6.09058 12.2711 6.09058 13.2656V43.2656C6.09058 44.2602 6.48566 45.214 7.18893 45.9173C7.89219 46.6205 8.84601 47.0156 9.84058 47.0156H24.0039L27.2101 52.6266C27.5382 53.2003 28.012 53.6772 28.5837 54.0089C29.1554 54.3406 29.8046 54.5153 30.4656 54.5153C31.1265 54.5153 31.7757 54.3406 32.3474 54.0089C32.9191 53.6772 33.393 53.2003 33.721 52.6266L36.9273 47.0156H51.0906C52.0851 47.0156 53.039 46.6205 53.7422 45.9173C54.4455 45.214 54.8406 44.2602 54.8406 43.2656V13.2656C54.8406 12.2711 54.4455 11.3172 53.7422 10.614C53.039 9.91071 52.0851 9.51563 51.0906 9.51562ZM20.1531 31.0781C19.5968 31.0781 19.053 30.9132 18.5905 30.6041C18.128 30.2951 17.7675 29.8558 17.5547 29.3419C17.3418 28.828 17.2861 28.2625 17.3946 27.7169C17.5031 27.1714 17.771 26.6702 18.1643 26.2769C18.5577 25.8836 19.0588 25.6157 19.6044 25.5072C20.15 25.3986 20.7155 25.4543 21.2294 25.6672C21.7433 25.8801 22.1825 26.2406 22.4916 26.7031C22.8006 27.1656 22.9656 27.7094 22.9656 28.2656C22.9656 29.0115 22.6693 29.7269 22.1418 30.2544C21.6144 30.7818 20.899 31.0781 20.1531 31.0781ZM30.4656 31.0781C29.9093 31.0781 29.3655 30.9132 28.903 30.6041C28.4405 30.2951 28.08 29.8558 27.8672 29.3419C27.6543 28.828 27.5986 28.2625 27.7071 27.7169C27.8156 27.1714 28.0835 26.6702 28.4768 26.2769C28.8702 25.8836 29.3713 25.6157 29.9169 25.5072C30.4625 25.3986 31.028 25.4543 31.5419 25.6672C32.0558 25.8801 32.495 26.2406 32.8041 26.7031C33.1131 27.1656 33.2781 27.7094 33.2781 28.2656C33.2781 29.0115 32.9818 29.7269 32.4543 30.2544C31.9269 30.7818 31.2115 31.0781 30.4656 31.0781ZM40.7781 31.0781C40.2218 31.0781 39.678 30.9132 39.2155 30.6041C38.753 30.2951 38.3925 29.8558 38.1797 29.3419C37.9668 28.828 37.9111 28.2625 38.0196 27.7169C38.1281 27.1714 38.396 26.6702 38.7893 26.2769C39.1827 25.8836 39.6838 25.6157 40.2294 25.5072C40.775 25.3986 41.3405 25.4543 41.8544 25.6672C42.3683 25.8801 42.8075 26.2406 43.1166 26.7031C43.4256 27.1656 43.5906 27.7094 43.5906 28.2656C43.5906 29.0115 43.2943 29.7269 42.7668 30.2544C42.2394 30.7818 41.524 31.0781 40.7781 31.0781Z" fill="url(#paint0_linear_14499_8947)"/>
</g>
<defs>
<linearGradient id="paint0_linear_14499_8947" x1="14.692" y1="-1.45406" x2="60.476" y2="49.6745" gradientUnits="userSpaceOnUse">
<stop stop-color="#8270DB"/>
<stop offset="1" stop-color="#C1B7F5"/>
</linearGradient>
<clipPath id="clip0_14499_8947">
<rect width="60" height="60" fill="white" transform="translate(0.465576 0.140625)"/>
</clipPath>
</defs>
</svg>
