<svg width="60" height="60" viewBox="0 0 60 60" fill="none" xmlns="http://www.w3.org/2000/svg">
<g clip-path="url(#clip0_14499_8943)">
<path d="M56.1912 21.2822C56.1912 21.308 56.1912 21.3314 56.1748 21.3572L50.8592 45.7018C50.6956 46.559 50.2381 47.3323 49.5655 47.8885C48.893 48.4446 48.0475 48.7488 47.1748 48.7486H12.8225C11.9502 48.7483 11.1053 48.4439 10.4332 47.8877C9.76116 47.3316 9.30401 46.5586 9.14045 45.7018L3.82482 21.3572C3.82482 21.3314 3.8131 21.308 3.80842 21.2822C3.66293 20.4762 3.78533 19.6447 4.15691 18.9148C4.52849 18.1849 5.12882 17.5968 5.86616 17.2402C6.6035 16.8836 7.43731 16.7782 8.24018 16.9401C9.04306 17.1021 9.77084 17.5224 10.3123 18.1369L18.2037 26.6424L26.5944 7.82441C26.5947 7.8166 26.5947 7.80878 26.5944 7.80097C26.8944 7.15022 27.3746 6.59906 27.9781 6.21273C28.5817 5.82641 29.2832 5.62109 29.9998 5.62109C30.7164 5.62109 31.418 5.82641 32.0215 6.21273C32.6251 6.59906 33.1053 7.15022 33.4053 7.80097C33.4049 7.80878 33.4049 7.8166 33.4053 7.82441L41.7959 26.6424L49.6873 18.1369C50.2299 17.527 50.9568 17.1107 51.7574 16.9515C52.5581 16.7922 53.3889 16.8985 54.1236 17.2544C54.8584 17.6102 55.4569 18.1961 55.8284 18.923C56.1999 19.65 56.324 20.4783 56.1819 21.2822H56.1912Z" fill="url(#paint0_linear_14499_8943)"/>
</g>
<defs>
<linearGradient id="paint0_linear_14499_8943" x1="13.0101" y1="-4.89222" x2="56.0453" y2="49.1002" gradientUnits="userSpaceOnUse">
<stop stop-color="#FBC037"/>
<stop offset="1" stop-color="#EEDCB1"/>
</linearGradient>
<clipPath id="clip0_14499_8943">
<rect width="60" height="60" fill="white" transform="translate(-0.000244141)"/>
</clipPath>
</defs>
</svg>
