<svg width="60" height="60" viewBox="0 0 60 60" fill="none" xmlns="http://www.w3.org/2000/svg">
<g clip-path="url(#clip0_14499_8951)">
<path d="M50.625 9.375H9.375C8.38044 9.375 7.42661 9.77009 6.72335 10.4733C6.02009 11.1766 5.625 12.1304 5.625 13.125V50.625C5.62517 50.9446 5.70702 51.2588 5.86277 51.5378C6.01853 51.8169 6.24302 52.0515 6.51494 52.2194C6.78685 52.3873 7.09717 52.4829 7.41642 52.4971C7.73568 52.5114 8.05327 52.4438 8.33906 52.3008L15 48.9703L21.6609 52.3008C21.9214 52.4311 22.2087 52.499 22.5 52.499C22.7913 52.499 23.0786 52.4311 23.3391 52.3008L30 48.9703L36.6609 52.3008C36.9214 52.4311 37.2087 52.499 37.5 52.499C37.7913 52.499 38.0786 52.4311 38.3391 52.3008L45 48.9703L51.6609 52.3008C51.9467 52.4438 52.2643 52.5114 52.5836 52.4971C52.9028 52.4829 53.2132 52.3873 53.4851 52.2194C53.757 52.0515 53.9815 51.8169 54.1372 51.5378C54.293 51.2588 54.3748 50.9446 54.375 50.625V13.125C54.375 12.1304 53.9799 11.1766 53.2766 10.4733C52.5734 9.77009 51.6196 9.375 50.625 9.375ZM27.1875 37.5C27.1875 37.7486 27.0887 37.9871 26.9129 38.1629C26.7371 38.3387 26.4986 38.4375 26.25 38.4375H15C14.7514 38.4375 14.5129 38.3387 14.3371 38.1629C14.1613 37.9871 14.0625 37.7486 14.0625 37.5V22.5C14.0625 22.2514 14.1613 22.0129 14.3371 21.8371C14.5129 21.6613 14.7514 21.5625 15 21.5625H26.25C26.4986 21.5625 26.7371 21.6613 26.9129 21.8371C27.0887 22.0129 27.1875 22.2514 27.1875 22.5V37.5ZM45 35.625H33.75C33.2527 35.625 32.7758 35.4275 32.4242 35.0758C32.0725 34.7242 31.875 34.2473 31.875 33.75C31.875 33.2527 32.0725 32.7758 32.4242 32.4242C32.7758 32.0725 33.2527 31.875 33.75 31.875H45C45.4973 31.875 45.9742 32.0725 46.3258 32.4242C46.6775 32.7758 46.875 33.2527 46.875 33.75C46.875 34.2473 46.6775 34.7242 46.3258 35.0758C45.9742 35.4275 45.4973 35.625 45 35.625ZM45 28.125H33.75C33.2527 28.125 32.7758 27.9275 32.4242 27.5758C32.0725 27.2242 31.875 26.7473 31.875 26.25C31.875 25.7527 32.0725 25.2758 32.4242 24.9242C32.7758 24.5725 33.2527 24.375 33.75 24.375H45C45.4973 24.375 45.9742 24.5725 46.3258 24.9242C46.6775 25.2758 46.875 25.7527 46.875 26.25C46.875 26.7473 46.6775 27.2242 46.3258 27.5758C45.9742 27.9275 45.4973 28.125 45 28.125Z" fill="url(#paint0_linear_14499_8951)"/>
</g>
<defs>
<linearGradient id="paint0_linear_14499_8951" x1="14.2264" y1="-1.13746" x2="57.8582" y2="49.707" gradientUnits="userSpaceOnUse">
<stop stop-color="#E5467B"/>
<stop offset="1" stop-color="#FBA2C0"/>
</linearGradient>
<clipPath id="clip0_14499_8951">
<rect width="60" height="60" fill="white"/>
</clipPath>
</defs>
</svg>
