<svg width="60" height="60" viewBox="0 0 60 60" fill="none" xmlns="http://www.w3.org/2000/svg">
<g clip-path="url(#clip0_14499_8778)">
<path d="M41.2499 54.3732C41.2499 54.8705 41.0524 55.3474 40.7008 55.699C40.3491 56.0506 39.8722 56.2482 39.3749 56.2482H20.6249C20.1277 56.2482 19.6507 56.0506 19.2991 55.699C18.9475 55.3474 18.7499 54.8705 18.7499 54.3732C18.7499 53.8759 18.9475 53.399 19.2991 53.0473C19.6507 52.6957 20.1277 52.4982 20.6249 52.4982H39.3749C39.8722 52.4982 40.3491 52.6957 40.7008 53.0473C41.0524 53.399 41.2499 53.8759 41.2499 54.3732ZM50.6249 24.3732C50.633 27.4989 49.9269 30.5852 48.5605 33.3964C47.194 36.2076 45.2034 38.6696 42.7406 40.5943C42.28 40.9473 41.9063 41.4009 41.648 41.9204C41.3896 42.44 41.2535 43.0117 41.2499 43.5919V44.9982C41.2499 45.9927 40.8549 46.9466 40.1516 47.6498C39.4483 48.3531 38.4945 48.7482 37.4999 48.7482H22.4999C21.5054 48.7482 20.5516 48.3531 19.8483 47.6498C19.145 46.9466 18.7499 45.9927 18.7499 44.9982V43.5919C18.7496 43.0186 18.6177 42.4531 18.3646 41.9387C18.1115 41.4243 17.7438 40.9748 17.2898 40.6247C14.8331 38.7114 12.8438 36.2643 11.4725 33.4686C10.1013 30.6729 9.38399 27.6019 9.37494 24.488C9.314 13.3177 18.3421 4.01536 29.5031 3.74817C32.2531 3.6819 34.9886 4.16642 37.5486 5.17322C40.1086 6.18001 42.4413 7.68873 44.4094 9.61057C46.3776 11.5324 47.9414 13.8286 49.0088 16.3638C50.0762 18.8991 50.6257 21.6223 50.6249 24.3732ZM43.0992 22.1841C42.613 19.4684 41.3064 16.9668 39.3554 15.0162C37.4043 13.0656 34.9025 11.7596 32.1867 11.274C31.9438 11.233 31.6953 11.2403 31.4553 11.2954C31.2152 11.3505 30.9884 11.4524 30.7878 11.5952C30.5871 11.7379 30.4165 11.9188 30.2858 12.1275C30.155 12.3362 30.0667 12.5686 30.0257 12.8115C29.9848 13.0543 29.9921 13.3028 30.0472 13.5428C30.1023 13.7829 30.2042 14.0097 30.3469 14.2104C30.4897 14.411 30.6706 14.5816 30.8793 14.7123C31.088 14.8431 31.3204 14.9315 31.5632 14.9724C35.4468 15.6263 38.7421 18.9216 39.4007 22.8122C39.4749 23.2489 39.7013 23.6453 40.0398 23.931C40.3783 24.2167 40.807 24.3733 41.2499 24.3732C41.3559 24.3725 41.4617 24.3639 41.5663 24.3474C42.0564 24.2637 42.4932 23.9888 42.7807 23.5831C43.0681 23.1775 43.1827 22.6742 43.0992 22.1841Z" fill="url(#paint0_linear_14499_8778)"/>
</g>
<defs>
<linearGradient id="paint0_linear_14499_8778" x1="16.6528" y1="-9.05734" x2="69.2263" y2="33.5192" gradientUnits="userSpaceOnUse">
<stop stop-color="#1D7AFC"/>
<stop offset="1" stop-color="#A3D8F0"/>
</linearGradient>
<clipPath id="clip0_14499_8778">
<rect width="60" height="60" fill="white"/>
</clipPath>
</defs>
</svg>
