<svg preserveAspectRatio="none" width="100%" height="100%" overflow="visible" style="display: block;" viewBox="0 0 60 60" fill="none" xmlns="http://www.w3.org/2000/svg">
<g id="PlayCircle" clip-path="url(#clip0_16097_22734)">
<g id="Vector">
</g>
<path id="Vector_2" d="M30 5.625C25.1791 5.625 20.4664 7.05457 16.458 9.73293C12.4495 12.4113 9.32532 16.2181 7.48044 20.6721C5.63555 25.126 5.15284 30.027 6.09336 34.7553C7.03387 39.4836 9.35537 43.8268 12.7643 47.2357C16.1732 50.6446 20.5164 52.9661 25.2447 53.9066C29.973 54.8472 34.874 54.3644 39.3279 52.5196C43.7819 50.6747 47.5887 47.5505 50.2671 43.542C52.9454 39.5336 54.375 34.8209 54.375 30C54.3682 23.5374 51.7979 17.3415 47.2282 12.7718C42.6585 8.20209 36.4626 5.63182 30 5.625ZM39.5039 31.5422L27.3164 39.9797C27.035 40.1742 26.7058 40.2881 26.3644 40.309C26.0229 40.3299 25.6823 40.2569 25.3793 40.0981C25.0764 39.9392 24.8227 39.7005 24.6456 39.4078C24.4686 39.1151 24.375 38.7796 24.375 38.4375V21.5625C24.375 21.2204 24.4686 20.8849 24.6456 20.5922C24.8227 20.2995 25.0764 20.0608 25.3793 19.9019C25.6823 19.7431 26.0229 19.6701 26.3644 19.691C26.7058 19.7119 27.035 19.8258 27.3164 20.0203L39.5039 28.4578C39.7534 28.6303 39.9572 28.8607 40.0981 29.1294C40.2389 29.398 40.3125 29.6967 40.3125 30C40.3125 30.3033 40.2389 30.602 40.0981 30.8706C39.9572 31.1393 39.7534 31.3697 39.5039 31.5422Z" fill="url(#paint0_linear_16097_22734)"/>
</g>
<defs>
<linearGradient id="paint0_linear_16097_22734" x1="14.2264" y1="-6.25892" x2="64.1058" y2="45.158" gradientUnits="userSpaceOnUse">
<stop stop-color="#FF2BCF"/>
<stop offset="1" stop-color="#FF9DE9"/>
</linearGradient>
<clipPath id="clip0_16097_22734">
<rect width="60" height="60" fill="white"/>
</clipPath>
</defs>
</svg>
