<svg preserveAspectRatio="none" width="100%" height="100%" overflow="visible" style="display: block;" viewBox="0 0 60 60" fill="none" xmlns="http://www.w3.org/2000/svg">
<g id="UserRectangle" clip-path="url(#clip0_16097_22742)">
<g id="Vector">
</g>
<path id="Vector_2" d="M40.3125 28.125C40.3125 30.1646 39.7077 32.1584 38.5745 33.8543C37.4414 35.5502 35.8308 36.872 33.9464 37.6525C32.0621 38.433 29.9886 38.6373 27.9881 38.2393C25.9877 37.8414 24.1502 36.8593 22.708 35.417C21.2657 33.9748 20.2836 32.1373 19.8857 30.1369C19.4877 28.1364 19.692 26.0629 20.4725 24.1786C21.253 22.2942 22.5748 20.6836 24.2707 19.5505C25.9666 18.4173 27.9604 17.8125 30 17.8125C32.735 17.8125 35.3581 18.899 37.292 20.833C39.226 22.7669 40.3125 25.39 40.3125 28.125ZM54.375 13.125V46.875C54.375 47.8696 53.9799 48.8234 53.2766 49.5266C52.5734 50.2299 51.6196 50.625 50.625 50.625H9.375C8.38044 50.625 7.42661 50.2299 6.72335 49.5266C6.02009 48.8234 5.625 47.8696 5.625 46.875V13.125C5.625 12.1304 6.02009 11.1766 6.72335 10.4733C7.42661 9.77009 8.38044 9.375 9.375 9.375H50.625C51.6196 9.375 52.5734 9.77009 53.2766 10.4733C53.9799 11.1766 54.375 12.1304 54.375 13.125ZM50.625 46.875V13.125H9.375V46.875H12.8156C14.2726 43.5421 16.6675 40.705 19.7086 38.7094C19.8793 38.5961 20.0824 38.5419 20.2868 38.5551C20.4913 38.5682 20.6858 38.6479 20.8406 38.782C23.3866 40.9789 26.6373 42.1875 30 42.1875C33.3627 42.1875 36.6134 40.9789 39.1594 38.782C39.3142 38.6479 39.5087 38.5682 39.7132 38.5551C39.9176 38.5419 40.1207 38.5961 40.2914 38.7094C43.3325 40.705 45.7274 43.5421 47.1844 46.875H50.625Z" fill="url(#paint0_linear_16097_22742)"/>
</g>
<defs>
<linearGradient id="paint0_linear_16097_22742" x1="14.2264" y1="-0.680625" x2="55.6418" y2="49.7736" gradientUnits="userSpaceOnUse">
<stop stop-color="#0096FF"/>
<stop offset="1" stop-color="#76C7FF"/>
</linearGradient>
<clipPath id="clip0_16097_22742">
<rect width="60" height="60" fill="white"/>
</clipPath>
</defs>
</svg>
