<svg preserveAspectRatio="none" width="100%" height="100%" overflow="visible" style="display: block;" viewBox="0 0 60 60" fill="none" xmlns="http://www.w3.org/2000/svg">
<g id="FileMd" clip-path="url(#clip0_16097_22726)">
<g id="Vector">
</g>
<path id="Union" d="M36.5126 4.83398C36.7668 4.83378 37.0189 4.8834 37.2538 4.98047C37.4888 5.07762 37.7028 5.22068 37.8827 5.40039L51.4335 18.9512C51.6132 19.1311 51.7553 19.3451 51.8525 19.5801C51.9495 19.8149 52.0001 20.0663 51.9999 20.3203V53.1699C52.0069 53.6417 51.8442 54.1006 51.5419 54.4629C51.2396 54.8251 50.8169 55.067 50.3515 55.1445C50.0762 55.1859 49.7948 55.167 49.5273 55.0898C49.2598 55.0127 49.0117 54.8789 48.8007 54.6973C48.5897 54.5156 48.4207 54.2902 48.3046 54.0371C48.1885 53.784 48.1279 53.5089 48.1279 53.2305V29.0322C48.1279 28.7755 48.0261 28.5292 47.8447 28.3477C47.6631 28.1661 47.4168 28.0645 47.1601 28.0645H10.3788C10.1222 28.0644 9.87577 27.9618 9.69427 27.7803C9.51306 27.5989 9.41119 27.3531 9.41107 27.0967V8.70605C9.41107 7.67922 9.81877 6.69386 10.5449 5.96777C11.2709 5.24169 12.2563 4.83398 13.2831 4.83398H36.5126ZM17.5517 33.3057C18.1945 33.3057 18.7663 33.7154 18.9726 34.3242L23.8886 48.8437C24.2179 49.8162 23.4953 50.8249 22.4687 50.8252H20.9872C20.3343 50.8252 19.7558 50.4024 19.5576 49.7803L18.6767 47.0146H13.5429L12.6591 49.7812C12.4605 50.4028 11.8819 50.8252 11.2294 50.8252H9.76947C8.74301 50.8252 8.01993 49.8172 8.34857 48.8447L13.2558 34.3252C13.4619 33.716 14.0335 33.3057 14.6767 33.3057H17.5517ZM34.1591 33.3057C35.4085 33.3057 36.5077 33.5368 37.4365 34.0215H37.4374C38.3743 34.4994 39.0969 35.1946 39.5898 36.0996C40.0791 36.9984 40.3154 38.0341 40.3154 39.1904C40.3154 40.341 40.0747 41.368 39.5751 42.2539L39.5742 42.2529C39.1329 43.0403 38.505 43.6621 37.7031 44.1191L40.0605 48.6299C40.5824 49.6286 39.8572 50.8252 38.7304 50.8252H37.3544C36.7906 50.825 36.2745 50.5083 36.0185 50.0059L33.4482 44.9609H31.7607V49.3252C31.7605 50.1535 31.089 50.8252 30.2607 50.8252H28.9921C28.1638 50.8251 27.4923 50.1535 27.4921 49.3252V34.8057C27.4922 33.9773 28.1638 33.3057 28.9921 33.3057H34.1591ZM22.5937 50.3174L22.707 50.2969C22.7083 50.2965 22.7095 50.2953 22.7109 50.2949C22.6727 50.3044 22.6337 50.3124 22.5937 50.3174ZM11.3906 50.3125L11.5058 50.2871C11.5155 50.2843 11.5245 50.2794 11.5341 50.2764C11.4874 50.2913 11.4397 50.3045 11.3906 50.3125ZM36.5263 49.8848C36.5284 49.8878 36.531 49.8905 36.5331 49.8936C36.508 49.8572 36.4842 49.8194 36.4638 49.7793L36.5263 49.8848ZM20.0859 49.7598C20.0883 49.7649 20.0921 49.7693 20.0947 49.7744C20.0713 49.7279 20.0503 49.6796 20.0341 49.6289L20.0859 49.7598ZM39.6171 48.8623C39.6587 48.9419 39.6872 49.0237 39.706 49.1055C39.697 49.0664 39.6868 49.027 39.6728 48.9883L39.6171 48.8613L37.2968 44.4219L39.6171 48.8623ZM14.7197 43.334H17.5029L16.1122 38.9707L14.7197 43.334ZM32.2607 37.123C31.985 37.1233 31.761 37.3474 31.7607 37.623V41.166H33.5712C34.1808 41.166 34.6429 41.0798 34.9804 40.9346C35.3146 40.7832 35.5463 40.5744 35.6992 40.3096C35.8547 40.04 35.9482 39.6758 35.9482 39.1904C35.9482 38.6881 35.8535 38.305 35.6943 38.0176C35.5406 37.7405 35.3077 37.5265 34.9706 37.377L34.9638 37.374C34.6205 37.2157 34.1597 37.1231 33.5605 37.123H32.2607ZM39.8154 39.1904L39.8076 38.8389C39.807 38.8268 39.8052 38.8148 39.8046 38.8027C39.8111 38.93 39.8154 39.0592 39.8154 39.1904ZM36.5126 20.3203H47.1601L36.5126 9.67383V20.3203Z" fill="url(#paint0_linear_16097_22726)"/>
</g>
<defs>
<linearGradient id="paint0_linear_16097_22726" x1="15.9844" y1="-7.43557" x2="67.1948" y2="38.4309" gradientUnits="userSpaceOnUse">
<stop stop-color="#4ABA05"/>
<stop offset="1" stop-color="#9BEE68"/>
</linearGradient>
<clipPath id="clip0_16097_22726">
<rect width="60" height="60" fill="white"/>
</clipPath>
</defs>
</svg>
