<svg preserveAspectRatio="none" width="100%" height="100%" overflow="visible" style="display: block;" viewBox="0 0 60 60" fill="none" xmlns="http://www.w3.org/2000/svg">
<g id="Cube" clip-path="url(#clip0_16097_22738)">
<g id="Vector">
</g>
<path id="Vector_2" d="M52.425 15.5039L31.8 4.21875C31.2489 3.91426 30.6296 3.75454 30 3.75454C29.3704 3.75454 28.7511 3.91426 28.2 4.21875L7.575 15.5086C6.98599 15.8309 6.4943 16.3054 6.15129 16.8826C5.80828 17.4597 5.62652 18.1184 5.625 18.7898V41.2055C5.62652 41.8769 5.80828 42.5356 6.15129 43.1128C6.4943 43.6899 6.98599 44.1644 7.575 44.4867L28.2 55.7766C28.7511 56.0811 29.3704 56.2408 30 56.2408C30.6296 56.2408 31.2489 56.0811 31.8 55.7766L52.425 44.4867C53.014 44.1644 53.5057 43.6899 53.8487 43.1128C54.1917 42.5356 54.3735 41.8769 54.375 41.2055V18.7922C54.3747 18.1196 54.1936 17.4594 53.8505 16.8809C53.5074 16.3024 53.0151 15.8268 52.425 15.5039ZM30 28.125L11.168 17.8125L30 7.5L48.832 17.8125L30 28.125ZM31.875 51.4781V31.3664L50.625 21.1055V41.2055L31.875 51.4781Z" fill="url(#paint0_linear_16097_22738)"/>
</g>
<defs>
<linearGradient id="paint0_linear_16097_22738" x1="14.2264" y1="-9.04018" x2="67.9025" y2="42.3518" gradientUnits="userSpaceOnUse">
<stop stop-color="#4A5BFF"/>
<stop offset="1" stop-color="#A3ACFF"/>
</linearGradient>
<clipPath id="clip0_16097_22738">
<rect width="60" height="60" fill="white"/>
</clipPath>
</defs>
</svg>
