<svg preserveAspectRatio="none" width="100%" height="100%" overflow="visible" style="display: block;" viewBox="0 0 60 60" fill="none" xmlns="http://www.w3.org/2000/svg">
<g id="SquaresFour" clip-path="url(#clip0_16097_22718)">
<g id="Vector">
</g>
<path id="Vector_2" d="M28.125 13.125V24.375C28.125 25.3696 27.7299 26.3234 27.0266 27.0266C26.3234 27.7299 25.3696 28.125 24.375 28.125H13.125C12.1304 28.125 11.1766 27.7299 10.4733 27.0266C9.77009 26.3234 9.375 25.3696 9.375 24.375V13.125C9.375 12.1304 9.77009 11.1766 10.4733 10.4733C11.1766 9.77009 12.1304 9.375 13.125 9.375H24.375C25.3696 9.375 26.3234 9.77009 27.0266 10.4733C27.7299 11.1766 28.125 12.1304 28.125 13.125ZM46.875 9.375H35.625C34.6304 9.375 33.6766 9.77009 32.9734 10.4733C32.2701 11.1766 31.875 12.1304 31.875 13.125V24.375C31.875 25.3696 32.2701 26.3234 32.9734 27.0266C33.6766 27.7299 34.6304 28.125 35.625 28.125H46.875C47.8696 28.125 48.8234 27.7299 49.5266 27.0266C50.2299 26.3234 50.625 25.3696 50.625 24.375V13.125C50.625 12.1304 50.2299 11.1766 49.5266 10.4733C48.8234 9.77009 47.8696 9.375 46.875 9.375ZM24.375 31.875H13.125C12.1304 31.875 11.1766 32.2701 10.4733 32.9734C9.77009 33.6766 9.375 34.6304 9.375 35.625V46.875C9.375 47.8696 9.77009 48.8234 10.4733 49.5266C11.1766 50.2299 12.1304 50.625 13.125 50.625H24.375C25.3696 50.625 26.3234 50.2299 27.0266 49.5266C27.7299 48.8234 28.125 47.8696 28.125 46.875V35.625C28.125 34.6304 27.7299 33.6766 27.0266 32.9734C26.3234 32.2701 25.3696 31.875 24.375 31.875ZM46.875 31.875H35.625C34.6304 31.875 33.6766 32.2701 32.9734 32.9734C32.2701 33.6766 31.875 34.6304 31.875 35.625V46.875C31.875 47.8696 32.2701 48.8234 32.9734 49.5266C33.6766 50.2299 34.6304 50.625 35.625 50.625H46.875C47.8696 50.625 48.8234 50.2299 49.5266 49.5266C50.2299 48.8234 50.625 47.8696 50.625 46.875V35.625C50.625 34.6304 50.2299 33.6766 49.5266 32.9734C48.8234 32.2701 47.8696 31.875 46.875 31.875Z" fill="url(#paint0_linear_16097_22718)"/>
</g>
<defs>
<linearGradient id="paint0_linear_16097_22718" x1="16.6531" y1="-0.680625" x2="58.8587" y2="42.826" gradientUnits="userSpaceOnUse">
<stop stop-color="#FF952C"/>
<stop offset="1" stop-color="#FFC387"/>
</linearGradient>
<clipPath id="clip0_16097_22718">
<rect width="60" height="60" fill="white"/>
</clipPath>
</defs>
</svg>
