<svg preserveAspectRatio="none" width="100%" height="100%" overflow="visible" style="display: block;" viewBox="0 0 60 60" fill="none" xmlns="http://www.w3.org/2000/svg">
<g id="StarFour" clip-path="url(#clip0_16097_22750)">
<g id="Vector">
</g>
<path id="Vector_2" d="M56.25 30C56.256 30.7691 56.0222 31.5209 55.5811 32.1509C55.1401 32.781 54.5137 33.258 53.7891 33.5156L38.9203 38.9227L33.5156 53.7891C33.2492 54.5067 32.7696 55.1257 32.1411 55.5628C31.5127 55.9998 30.7655 56.2341 30 56.2341C29.2345 56.2341 28.4873 55.9998 27.8589 55.5628C27.2304 55.1257 26.7508 54.5067 26.4844 53.7891L21.0797 38.9203L6.21094 33.5156C5.49327 33.2492 4.87433 32.7696 4.43724 32.1411C4.00016 31.5127 3.76588 30.7655 3.76588 30C3.76588 29.2345 4.00016 28.4873 4.43724 27.8589C4.87433 27.2304 5.49327 26.7508 6.21094 26.4844L21.0797 21.0797L26.4844 6.21094C26.7508 5.49327 27.2304 4.87433 27.8589 4.43724C28.4873 4.00016 29.2345 3.76588 30 3.76588C30.7655 3.76588 31.5127 4.00016 32.1411 4.43724C32.7696 4.87433 33.2492 5.49327 33.5156 6.21094L38.9227 21.0797L53.7891 26.4844C54.5137 26.742 55.1401 27.219 55.5811 27.8491C56.0222 28.4791 56.256 29.2309 56.25 30Z" fill="url(#paint0_linear_16097_22750)"/>
</g>
<defs>
<linearGradient id="paint0_linear_16097_22750" x1="13.0261" y1="-9.02444" x2="66.7094" y2="46.3304" gradientUnits="userSpaceOnUse">
<stop stop-color="#D0DA06"/>
<stop offset="1" stop-color="#E6EE4F"/>
</linearGradient>
<clipPath id="clip0_16097_22750">
<rect width="60" height="60" fill="white"/>
</clipPath>
</defs>
</svg>
