<svg preserveAspectRatio="none" width="100%" height="100%" overflow="visible" style="display: block;" viewBox="0 0 60 60" fill="none" xmlns="http://www.w3.org/2000/svg">
<g id="Briefcase" clip-path="url(#clip0_16097_22746)">
<g id="Vector">
</g>
<path id="Vector_2" d="M35.625 26.25C35.625 26.7473 35.4275 27.2242 35.0758 27.5758C34.7242 27.9275 34.2473 28.125 33.75 28.125H26.25C25.7527 28.125 25.2758 27.9275 24.9242 27.5758C24.5725 27.2242 24.375 26.7473 24.375 26.25C24.375 25.7527 24.5725 25.2758 24.9242 24.9242C25.2758 24.5725 25.7527 24.375 26.25 24.375H33.75C34.2473 24.375 34.7242 24.5725 35.0758 24.9242C35.4275 25.2758 35.625 25.7527 35.625 26.25ZM54.375 16.875V46.875C54.375 47.8696 53.9799 48.8234 53.2766 49.5266C52.5734 50.2299 51.6196 50.625 50.625 50.625H9.375C8.38044 50.625 7.42661 50.2299 6.72335 49.5266C6.02009 48.8234 5.625 47.8696 5.625 46.875V16.875C5.625 15.8804 6.02009 14.9266 6.72335 14.2233C7.42661 13.5201 8.38044 13.125 9.375 13.125H18.75V11.25C18.75 9.75816 19.3426 8.32742 20.3975 7.27252C21.4524 6.21763 22.8832 5.625 24.375 5.625H35.625C37.1168 5.625 38.5476 6.21763 39.6025 7.27252C40.6574 8.32742 41.25 9.75816 41.25 11.25V13.125H50.625C51.6196 13.125 52.5734 13.5201 53.2766 14.2233C53.9799 14.9266 54.375 15.8804 54.375 16.875ZM22.5 13.125H37.5V11.25C37.5 10.7527 37.3025 10.2758 36.9508 9.92418C36.5992 9.57254 36.1223 9.375 35.625 9.375H24.375C23.8777 9.375 23.4008 9.57254 23.0492 9.92418C22.6975 10.2758 22.5 10.7527 22.5 11.25V13.125ZM50.625 26.6273V16.875H9.375V26.6273C15.7036 30.0721 22.7946 31.8763 30 31.875C37.2054 31.8763 44.2964 30.0721 50.625 26.6273Z" fill="url(#paint0_linear_16097_22746)"/>
</g>
<defs>
<linearGradient id="paint0_linear_16097_22746" x1="14.2264" y1="-5.34477" x2="60.0108" y2="45.7839" gradientUnits="userSpaceOnUse">
<stop stop-color="#2F2D3A"/>
<stop offset="1" stop-color="#7B7988" stop-opacity="0.847059"/>
</linearGradient>
<clipPath id="clip0_16097_22746">
<rect width="60" height="60" fill="white"/>
</clipPath>
</defs>
</svg>
