<svg preserveAspectRatio="none" width="100%" height="100%" overflow="visible" style="display: block;" viewBox="0 0 60 60" fill="none" xmlns="http://www.w3.org/2000/svg">
<g id="DiamondsFour" clip-path="url(#clip0_16097_22701)">
<g id="Vector">
</g>
<path id="Vector_2" d="M19.2984 16.3266C19.1241 16.1524 18.9858 15.9456 18.8914 15.718C18.7971 15.4904 18.7485 15.2464 18.7485 15C18.7485 14.7536 18.7971 14.5096 18.8914 14.282C18.9858 14.0544 19.1241 13.8476 19.2984 13.6734L28.6734 4.29844C28.8476 4.12411 29.0544 3.98581 29.282 3.89145C29.5096 3.79709 29.7536 3.74852 30 3.74852C30.2464 3.74852 30.4904 3.79709 30.718 3.89145C30.9456 3.98581 31.1524 4.12411 31.3266 4.29844L40.7016 13.6734C40.8759 13.8476 41.0142 14.0544 41.1085 14.282C41.2029 14.5096 41.2515 14.7536 41.2515 15C41.2515 15.2464 41.2029 15.4904 41.1085 15.718C41.0142 15.9456 40.8759 16.1524 40.7016 16.3266L31.3266 25.7016C31.1524 25.8759 30.9456 26.0142 30.718 26.1085C30.4904 26.2029 30.2464 26.2515 30 26.2515C29.7536 26.2515 29.5096 26.2029 29.282 26.1085C29.0544 26.0142 28.8476 25.8759 28.6734 25.7016L19.2984 16.3266ZM31.3266 34.2984C31.1524 34.1241 30.9456 33.9858 30.718 33.8914C30.4904 33.7971 30.2464 33.7485 30 33.7485C29.7536 33.7485 29.5096 33.7971 29.282 33.8914C29.0544 33.9858 28.8476 34.1241 28.6734 34.2984L19.2984 43.6734C19.1241 43.8476 18.9858 44.0544 18.8914 44.282C18.7971 44.5096 18.7485 44.7536 18.7485 45C18.7485 45.2464 18.7971 45.4904 18.8914 45.718C18.9858 45.9456 19.1241 46.1524 19.2984 46.3266L28.6734 55.7016C28.8476 55.8759 29.0544 56.0142 29.282 56.1085C29.5096 56.2029 29.7536 56.2515 30 56.2515C30.2464 56.2515 30.4904 56.2029 30.718 56.1085C30.9456 56.0142 31.1524 55.8759 31.3266 55.7016L40.7016 46.3266C40.8759 46.1524 41.0142 45.9456 41.1085 45.718C41.2029 45.4904 41.2515 45.2464 41.2515 45C41.2515 44.7536 41.2029 44.5096 41.1085 44.282C41.0142 44.0544 40.8759 43.8476 40.7016 43.6734L31.3266 34.2984ZM55.7016 28.6734L46.3266 19.2984C46.1524 19.1241 45.9456 18.9858 45.718 18.8914C45.4904 18.7971 45.2464 18.7485 45 18.7485C44.7536 18.7485 44.5096 18.7971 44.282 18.8914C44.0544 18.9858 43.8476 19.1241 43.6734 19.2984L34.2984 28.6734C34.1241 28.8476 33.9858 29.0544 33.8914 29.282C33.7971 29.5096 33.7485 29.7536 33.7485 30C33.7485 30.2464 33.7971 30.4904 33.8914 30.718C33.9858 30.9456 34.1241 31.1524 34.2984 31.3266L43.6734 40.7016C43.8476 40.8759 44.0544 41.0142 44.282 41.1085C44.5096 41.2029 44.7536 41.2515 45 41.2515C45.2464 41.2515 45.4904 41.2029 45.718 41.1085C45.9456 41.0142 46.1524 40.8759 46.3266 40.7016L55.7016 31.3266C55.8759 31.1524 56.0142 30.9456 56.1085 30.718C56.2029 30.4904 56.2515 30.2464 56.2515 30C56.2515 29.7536 56.2029 29.5096 56.1085 29.282C56.0142 29.0544 55.8759 28.8476 55.7016 28.6734ZM25.7016 28.6734L16.3266 19.2984C16.1524 19.1241 15.9456 18.9858 15.718 18.8914C15.4904 18.7971 15.2464 18.7485 15 18.7485C14.7536 18.7485 14.5096 18.7971 14.282 18.8914C14.0544 18.9858 13.8476 19.1241 13.6734 19.2984L4.29844 28.6734C4.12411 28.8476 3.98581 29.0544 3.89145 29.282C3.79709 29.5096 3.74852 29.7536 3.74852 30C3.74852 30.2464 3.79709 30.4904 3.89145 30.718C3.98581 30.9456 4.12411 31.1524 4.29844 31.3266L13.6734 40.7016C13.8476 40.8759 14.0544 41.0142 14.282 41.1085C14.5096 41.2029 14.7536 41.2515 15 41.2515C15.2464 41.2515 15.4904 41.2029 15.718 41.1085C15.9456 41.0142 16.1524 40.8759 16.3266 40.7016L25.7016 31.3266C25.8759 31.1524 26.0142 30.9456 26.1085 30.718C26.2029 30.4904 26.2515 30.2464 26.2515 30C26.2515 29.7536 26.2029 29.5096 26.1085 29.282C26.0142 29.0544 25.8759 28.8476 25.7016 28.6734Z" fill="url(#paint0_linear_16097_22701)"/>
</g>
<defs>
<linearGradient id="paint0_linear_16097_22701" x1="13.0121" y1="-9.05026" x2="66.7313" y2="46.3248" gradientUnits="userSpaceOnUse">
<stop stop-color="#D19E0F"/>
<stop offset="1" stop-color="#E7D49E" stop-opacity="0.847059"/>
</linearGradient>
<clipPath id="clip0_16097_22701">
<rect width="60" height="60" fill="white"/>
</clipPath>
</defs>
</svg>
