<svg width="60" height="60" viewBox="0 0 60 60" fill="none" xmlns="http://www.w3.org/2000/svg">
<g clip-path="url(#clip0_17300_27538)">
<path d="M49.6777 6.0625C49.8556 6.0625 50.0207 6.15696 50.1104 6.31055L59.0986 21.7178C59.1432 21.7942 59.167 21.8812 59.167 21.9697C59.1668 25.6306 55.677 28.4922 51.584 28.4922C51.5007 28.4922 51.4177 28.4897 51.335 28.4873V50.1826C51.3348 51.8901 49.9507 53.2744 48.2432 53.2744H12.4229C10.7154 53.2743 9.33119 51.8901 9.33105 50.1826V28.4873C9.24895 28.4896 9.16661 28.4922 9.08398 28.4922C4.9921 28.4922 1.50015 25.6308 1.5 21.9697C1.5 21.8752 1.52666 21.7821 1.57715 21.7021L11.3105 6.2959L11.3477 6.24414C11.4419 6.13002 11.5832 6.0625 11.7334 6.0625H49.6777ZM44.5 24.2979C43.3953 26.7741 40.588 28.4922 37.417 28.4922C34.246 28.4922 31.4387 26.7741 30.334 24.2979C29.229 26.7741 26.421 28.4922 23.25 28.4922C20.0757 28.4922 17.2697 26.7741 16.166 24.2979C15.6035 25.5584 14.5991 26.6213 13.3311 27.3623V49.2744H24.6318V35C24.6318 34.2969 25.2022 33.7266 25.9053 33.7266H34.7617C35.4648 33.7266 36.0352 34.2969 36.0352 35V49.2744H47.335V27.3613C46.0669 26.6204 45.0624 25.5582 44.5 24.2979Z" fill="url(#paint0_linear_17300_27538)"/>
</g>
<defs>
<linearGradient id="paint0_linear_17300_27538" x1="11.6747" y1="-5.44648" x2="58.7477" y2="53.8231" gradientUnits="userSpaceOnUse">
<stop stop-color="#D0B100"/>
<stop offset="1" stop-color="#D8D81F" stop-opacity="0.847059"/>
</linearGradient>
<clipPath id="clip0_17300_27538">
<rect width="60" height="60" fill="white"/>
</clipPath>
</defs>
</svg>
