<svg width="60" height="60" viewBox="0 0 60 60" fill="none" xmlns="http://www.w3.org/2000/svg">
<g clip-path="url(#clip0_17300_27558)">
<path d="M50.625 16.8783H42.4031C42.4945 16.8009 42.5883 16.7259 42.6773 16.6439C43.3892 16.0115 43.9628 15.239 44.3625 14.3748C44.7621 13.5106 44.9792 12.5732 45 11.6212C45.0308 10.5799 44.8484 9.54316 44.464 8.5748C44.0797 7.60645 43.5015 6.72687 42.7649 5.99007C42.0283 5.25326 41.1489 4.67478 40.1807 4.29013C39.2124 3.90549 38.1758 3.72279 37.1344 3.75327C36.182 3.77378 35.2442 3.99066 34.3795 4.39032C33.5149 4.78998 32.742 5.36382 32.1094 6.07593C31.2339 7.09052 30.5222 8.23556 30 9.46968C29.4778 8.23556 28.7661 7.09052 27.8906 6.07593C27.258 5.36382 26.4851 4.78998 25.6205 4.39032C24.7558 3.99066 23.818 3.77378 22.8656 3.75327C21.8242 3.72279 20.7876 3.90549 19.8193 4.29013C18.8511 4.67478 17.9717 5.25326 17.2351 5.99007C16.4985 6.72687 15.9203 7.60645 15.536 8.5748C15.1516 9.54316 14.9692 10.5799 15 11.6212C15.0208 12.5732 15.2379 13.5106 15.6375 14.3748C16.0372 15.239 16.6108 16.0115 17.3227 16.6439C17.4117 16.7212 17.5055 16.7962 17.5969 16.8783H9.375C8.38044 16.8783 7.42661 17.2734 6.72335 17.9766C6.02009 18.6799 5.625 19.6337 5.625 20.6283V28.1283C5.625 29.1228 6.02009 30.0767 6.72335 30.7799C7.42661 31.4832 8.38044 31.8783 9.375 31.8783V46.8783C9.375 47.8728 9.77009 48.8267 10.4733 49.5299C11.1766 50.2332 12.1304 50.6283 13.125 50.6283H27.1875C27.4361 50.6283 27.6746 50.5295 27.8504 50.3537C28.0262 50.1779 28.125 49.9394 28.125 49.6908V28.1283H9.375V20.6283H28.125V28.1283H31.875V20.6283H50.625V28.1283H31.875V49.6908C31.875 49.9394 31.9738 50.1779 32.1496 50.3537C32.3254 50.5295 32.5639 50.6283 32.8125 50.6283H46.875C47.8696 50.6283 48.8234 50.2332 49.5266 49.5299C50.2299 48.8267 50.625 47.8728 50.625 46.8783V31.8783C51.6196 31.8783 52.5734 31.4832 53.2766 30.7799C53.9799 30.0767 54.375 29.1228 54.375 28.1283V20.6283C54.375 19.6337 53.9799 18.6799 53.2766 17.9766C52.5734 17.2734 51.6196 16.8783 50.625 16.8783ZM19.807 13.8314C19.4792 13.5345 19.2163 13.1731 19.0348 12.7697C18.8533 12.3664 18.7571 11.9299 18.7523 11.4876C18.7405 10.9694 18.8322 10.4541 19.022 9.97179C19.2119 9.48948 19.4961 9.04991 19.858 8.67884C20.2199 8.30777 20.6522 8.01265 21.1296 7.81079C21.6071 7.60893 22.1199 7.50438 22.6383 7.50327H22.7531C23.1954 7.50804 23.6319 7.60419 24.0352 7.78569C24.4385 7.96719 24.8 8.23012 25.0969 8.55796C27.0633 10.7798 27.757 14.4642 28.0008 16.7423C25.7133 16.5009 22.0313 15.8072 19.807 13.8314ZM40.1977 13.8314C37.9734 15.8001 34.282 16.4939 31.9945 16.7376C32.2734 14.2744 33.0469 10.6673 34.9219 8.5603C35.2188 8.23246 35.5802 7.96954 35.9835 7.78804C36.3869 7.60654 36.8234 7.51039 37.2656 7.50562H37.3805C37.8988 7.50886 38.4113 7.61553 38.8879 7.81938C39.3646 8.02323 39.7957 8.32015 40.1561 8.69276C40.5164 9.06537 40.7988 9.50616 40.9867 9.9893C41.1745 10.4724 41.264 10.9882 41.25 11.5064C41.2424 11.9457 41.1446 12.3787 40.9628 12.7786C40.781 13.1785 40.5189 13.5369 40.193 13.8314H40.1977Z" fill="url(#paint0_linear_17300_27558)"/>
</g>
<defs>
<linearGradient id="paint0_linear_17300_27558" x1="14.2264" y1="-7.67764" x2="62.0971" y2="43.6389" gradientUnits="userSpaceOnUse">
<stop stop-color="#06B8B0"/>
<stop offset="1" stop-color="#6BE4DF"/>
</linearGradient>
<clipPath id="clip0_17300_27558">
<rect width="60" height="60" fill="white"/>
</clipPath>
</defs>
</svg>
