<svg preserveAspectRatio="none" width="100%" height="100%" overflow="visible" style="display: block;" viewBox="0 0 60 60" fill="none" xmlns="http://www.w3.org/2000/svg">
<g id="MagnifyingGlass" clip-path="url(#clip0_16097_22714)">
<g id="Vector">
</g>
<path id="Vector_2" d="M39.375 26.25C39.375 28.8459 38.6052 31.3835 37.163 33.5419C35.7208 35.7003 33.671 37.3825 31.2727 38.3759C28.8744 39.3693 26.2354 39.6292 23.6894 39.1228C21.1434 38.6164 18.8048 37.3663 16.9692 35.5308C15.1337 33.6952 13.8836 31.3566 13.3772 28.8106C12.8708 26.2646 13.1307 23.6256 14.1241 21.2273C15.1175 18.829 16.7997 16.7792 18.9581 15.337C21.1165 13.8948 23.6541 13.125 26.25 13.125C29.731 13.125 33.0694 14.5078 35.5308 16.9692C37.9922 19.4306 39.375 22.769 39.375 26.25ZM53.8266 53.8266C53.6524 54.0009 53.4456 54.1392 53.218 54.2336C52.9904 54.3279 52.7464 54.3765 52.5 54.3765C52.2536 54.3765 52.0096 54.3279 51.782 54.2336C51.5544 54.1392 51.3476 54.0009 51.1734 53.8266L39.4406 42.0914C35.3604 45.4859 30.1286 47.1767 24.8336 46.8122C19.5385 46.4478 14.5878 44.056 11.0111 40.1345C7.43452 36.213 5.50734 31.0636 5.63048 25.7574C5.75363 20.4512 7.91761 15.3968 11.6723 11.6454C15.427 7.89403 20.4834 5.73452 25.7896 5.61606C31.0959 5.49761 36.2436 7.42933 40.162 11.0094C44.0803 14.5895 46.4677 19.5424 46.8275 24.8378C47.1873 30.1331 45.4918 35.3634 42.0938 39.4406L53.8266 51.1734C54.0009 51.3476 54.1392 51.5544 54.2335 51.782C54.3279 52.0096 54.3765 52.2536 54.3765 52.5C54.3765 52.7464 54.3279 52.9904 54.2335 53.218C54.1392 53.4456 54.0009 53.6524 53.8266 53.8266ZM26.25 43.125C29.5876 43.125 32.8502 42.1353 35.6252 40.281C38.4003 38.4268 40.5632 35.7913 41.8405 32.7078C43.1177 29.6243 43.4519 26.2313 42.8008 22.9579C42.1496 19.6844 40.5424 16.6776 38.1824 14.3176C35.8224 11.9576 32.8156 10.3504 29.5421 9.69925C26.2687 9.04812 22.8757 9.3823 19.7922 10.6595C16.7087 11.9368 14.0732 14.0997 12.219 16.8748C10.3647 19.6498 9.375 22.9124 9.375 26.25C9.37996 30.724 11.1595 35.0133 14.3231 38.1769C17.4867 41.3405 21.776 43.12 26.25 43.125Z" fill="url(#paint0_linear_16097_22714)"/>
</g>
<defs>
<linearGradient id="paint0_linear_16097_22714" x1="14.2266" y1="-6.27679" x2="64.1223" y2="45.1421" gradientUnits="userSpaceOnUse">
<stop stop-color="#06B8B0"/>
<stop offset="1" stop-color="#6BE4DF"/>
</linearGradient>
<clipPath id="clip0_16097_22714">
<rect width="60" height="60" fill="white"/>
</clipPath>
</defs>
</svg>
