<svg preserveAspectRatio="none" width="100%" height="100%" overflow="visible" style="display: block;" viewBox="0 0 60 60" fill="none" xmlns="http://www.w3.org/2000/svg">
<g id="Stack" clip-path="url(#clip0_16097_22707)">
<g id="Vector">
</g>
<path id="Union" d="M52.2568 39.3828C52.5025 39.3469 52.7536 39.3602 52.9941 39.4219C53.2345 39.4835 53.4602 39.5926 53.6582 39.7422C53.8563 39.8918 54.0224 40.0795 54.1475 40.2939C54.2725 40.5083 54.354 40.7452 54.3867 40.9912C54.4194 41.2373 54.4027 41.4878 54.3379 41.7275C54.2731 41.9671 54.1619 42.1916 54.0098 42.3877C53.8575 42.5839 53.6673 42.7478 53.4512 42.8701L30.9512 55.9951C30.6645 56.1622 30.3386 56.25 30.0068 56.25C29.675 56.25 29.3491 56.1623 29.0625 55.9951L6.5625 42.8701C6.16557 42.6058 5.88377 42.1998 5.77539 41.7354C5.66716 41.2711 5.74064 40.7827 5.97949 40.3701C6.21838 39.9576 6.60504 39.651 7.06152 39.5137C7.51821 39.3764 8.0106 39.4183 8.4375 39.6309L30 52.2051L51.5625 39.6309C51.7752 39.5031 52.0113 39.4187 52.2568 39.3828ZM52.2568 28.1328C52.5025 28.0969 52.7536 28.1102 52.9941 28.1719C53.2345 28.2335 53.4602 28.3426 53.6582 28.4922C53.8563 28.6418 54.0224 28.8295 54.1475 29.0439C54.2725 29.2583 54.354 29.4952 54.3867 29.7412C54.4194 29.9873 54.4027 30.2378 54.3379 30.4775C54.2731 30.7171 54.1619 30.9416 54.0098 31.1377C53.8575 31.3339 53.6673 31.4978 53.4512 31.6201L30.9512 44.7451C30.6645 44.9122 30.3386 45 30.0068 45C29.675 45 29.3491 44.9123 29.0625 44.7451L6.5625 31.6201C6.16557 31.3558 5.88377 30.9498 5.77539 30.4854C5.66716 30.0211 5.74064 29.5327 5.97949 29.1201C6.21838 28.7076 6.60504 28.401 7.06152 28.2637C7.51821 28.1264 8.0106 28.1683 8.4375 28.3809L30 40.9551L51.5625 28.3809C51.7752 28.2531 52.0113 28.1687 52.2568 28.1328ZM30.0068 3.75C30.3386 3.75 30.6646 3.83786 30.9512 4.00488L53.4512 17.1299C53.7342 17.295 53.9696 17.5322 54.1328 17.8164C54.2959 18.1005 54.3818 18.4225 54.3818 18.75C54.3818 19.0776 54.2959 19.3995 54.1328 19.6836C53.9696 19.9678 53.7342 20.204 53.4512 20.3691L30.9512 33.4941C30.6645 33.6613 30.3387 33.75 30.0068 33.75C29.675 33.75 29.3492 33.6613 29.0625 33.4941L6.5625 20.3691C6.27954 20.204 6.04502 19.9677 5.88184 19.6836C5.71867 19.3995 5.63187 19.0776 5.63184 18.75C5.63184 18.4224 5.71868 18.1005 5.88184 17.8164C6.04504 17.5322 6.27946 17.295 6.5625 17.1299L29.0625 4.00488C29.3491 3.8378 29.6751 3.75003 30.0068 3.75Z" fill="url(#paint0_linear_16097_22707)"/>
</g>
<defs>
<linearGradient id="paint0_linear_16097_22707" x1="14.2377" y1="-9.04807" x2="67.9283" y2="42.3655" gradientUnits="userSpaceOnUse">
<stop stop-color="#00A3D5"/>
<stop offset="1" stop-color="#5CC4FF"/>
</linearGradient>
<clipPath id="clip0_16097_22707">
<rect width="60" height="60" fill="white"/>
</clipPath>
</defs>
</svg>
