<svg width="60" height="60" viewBox="0 0 60 60" fill="none" xmlns="http://www.w3.org/2000/svg">
<g clip-path="url(#clip0_17300_27574)">
<path d="M48.75 7.5H11.25C10.2554 7.5 9.30161 7.89509 8.59835 8.59835C7.89509 9.30161 7.5 10.2554 7.5 11.25V48.75C7.5 49.7446 7.89509 50.6984 8.59835 51.4016C9.30161 52.1049 10.2554 52.5 11.25 52.5H36.7242C37.2169 52.5016 37.7049 52.4052 38.16 52.2165C38.615 52.0278 39.028 51.7505 39.375 51.4008L51.4008 39.375C51.7505 39.028 52.0278 38.615 52.2165 38.16C52.4052 37.7049 52.5016 37.2169 52.5 36.7242V11.25C52.5 10.2554 52.1049 9.30161 51.4016 8.59835C50.6984 7.89509 49.7446 7.5 48.75 7.5ZM37.5 47.9742V37.5H47.9742L37.5 47.9742Z" fill="url(#paint0_linear_17300_27574)"/>
</g>
<defs>
<linearGradient id="paint0_linear_17300_27574" x1="15.4397" y1="-3.46978" x2="61.4823" y2="43.992" gradientUnits="userSpaceOnUse">
<stop stop-color="#9971F5"/>
<stop offset="1" stop-color="#C7B1FA"/>
</linearGradient>
<clipPath id="clip0_17300_27574">
<rect width="60" height="60" fill="white"/>
</clipPath>
</defs>
</svg>
