<svg width="60" height="60" viewBox="0 0 60 60" fill="none" xmlns="http://www.w3.org/2000/svg">
<g clip-path="url(#clip0_17300_27570)">
<path d="M50.625 9.375H16.875C15.8804 9.375 14.9266 9.77009 14.2233 10.4733C13.5201 11.1766 13.125 12.1304 13.125 13.125V16.875H9.375C8.38044 16.875 7.42661 17.2701 6.72335 17.9734C6.02009 18.6766 5.625 19.6304 5.625 20.625V46.875C5.625 47.8696 6.02009 48.8234 6.72335 49.5266C7.42661 50.2299 8.38044 50.625 9.375 50.625H43.125C44.1196 50.625 45.0734 50.2299 45.7766 49.5266C46.4799 48.8234 46.875 47.8696 46.875 46.875V43.125H50.625C51.6196 43.125 52.5734 42.7299 53.2766 42.0266C53.9799 41.3234 54.375 40.3696 54.375 39.375V13.125C54.375 12.1304 53.9799 11.1766 53.2766 10.4733C52.5734 9.77009 51.6196 9.375 50.625 9.375ZM40.3125 16.875C40.8688 16.875 41.4125 17.0399 41.875 17.349C42.3376 17.658 42.698 18.0973 42.9109 18.6112C43.1238 19.1251 43.1795 19.6906 43.071 20.2362C42.9624 20.7818 42.6946 21.2829 42.3012 21.6762C41.9079 22.0696 41.4068 22.3374 40.8612 22.446C40.3156 22.5545 39.7501 22.4988 39.2362 22.2859C38.7223 22.073 38.283 21.7126 37.974 21.25C37.665 20.7875 37.5 20.2438 37.5 19.6875C37.5 18.9416 37.7963 18.2262 38.3238 17.6988C38.8512 17.1713 39.5666 16.875 40.3125 16.875ZM43.125 46.875H9.375V20.625H13.125V39.375C13.125 40.3696 13.5201 41.3234 14.2233 42.0266C14.9266 42.7299 15.8804 43.125 16.875 43.125H43.125V46.875ZM50.625 39.375H16.875V28.2867L23.9859 21.1734C24.1601 20.9991 24.3669 20.8608 24.5945 20.7665C24.8221 20.6721 25.0661 20.6235 25.3125 20.6235C25.5589 20.6235 25.8029 20.6721 26.0305 20.7665C26.2581 20.8608 26.4649 20.9991 26.6391 21.1734L38.2758 32.8125L44.2969 26.7984C44.6485 26.4471 45.1252 26.2497 45.6223 26.2497C46.1193 26.2497 46.5961 26.4471 46.9477 26.7984L50.625 30.4852V39.375Z" fill="url(#paint0_linear_17300_27570)"/>
</g>
<defs>
<linearGradient id="paint0_linear_17300_27570" x1="14.2264" y1="-0.680625" x2="55.6418" y2="49.7736" gradientUnits="userSpaceOnUse">
<stop stop-color="#ED34FF"/>
<stop offset="1" stop-color="#F7ACFF"/>
</linearGradient>
<clipPath id="clip0_17300_27570">
<rect width="60" height="60" fill="white"/>
</clipPath>
</defs>
</svg>
